# xmcd
# 
# Track frame offsets:
#     150
#     14027
#     44077
# 
# Disc length: 904
# 
# Revision: 1
# Processed by: cddbd v1.5.2PL0 Copyright (c) Steve Scherf et al.
# Submitted via: fre:ac v1.0.31
# 
DISCID=26038603
DTITLE=Johnny Hallyday - Always (single)
DYEAR=2007
DGENRE=Blues
TTITLE0=Always
TTITLE1=Le blues maudit
TTITLE2=Making of du clip Always (plage multimédia)
EXTD=
EXTT0=
EXTT1=
EXTT2=
PLAYORDER=
